<svg width="1110" height="25" viewBox="0 0 1110 25" fill="none" xmlns="http://www.w3.org/2000/svg">
<line x1="253.5" y1="25" x2="253.5" y2="-6.55671e-08" stroke="#D7B399" stroke-width="3"/>
<line x1="255" y1="23.5" x2="230" y2="23.5" stroke="#D7B399" stroke-width="3"/>
<line y1="-1.5" x2="25" y2="-1.5" transform="matrix(-4.37114e-08 -1 -1 4.37114e-08 0 25)" stroke="#D7B399" stroke-width="3"/>
<line y1="-1.5" x2="25" y2="-1.5" transform="matrix(1 0 0 -1 0 22)" stroke="#D7B399" stroke-width="3"/>
<line x1="538.5" y1="25" x2="538.5" y2="-6.55671e-08" stroke="#D7B399" stroke-width="3"/>
<line x1="540" y1="23.5" x2="515" y2="23.5" stroke="#D7B399" stroke-width="3"/>
<line y1="-1.5" x2="25" y2="-1.5" transform="matrix(-4.37114e-08 -1 -1 4.37114e-08 285 25)" stroke="#D7B399" stroke-width="3"/>
<line y1="-1.5" x2="25" y2="-1.5" transform="matrix(1 0 0 -1 285 22)" stroke="#D7B399" stroke-width="3"/>
<line x1="823.5" y1="25" x2="823.5" y2="-6.55671e-08" stroke="#D7B399" stroke-width="3"/>
<line x1="825" y1="23.5" x2="800" y2="23.5" stroke="#D7B399" stroke-width="3"/>
<line y1="-1.5" x2="25" y2="-1.5" transform="matrix(-4.37114e-08 -1 -1 4.37114e-08 570 25)" stroke="#D7B399" stroke-width="3"/>
<line y1="-1.5" x2="25" y2="-1.5" transform="matrix(1 0 0 -1 570 22)" stroke="#D7B399" stroke-width="3"/>
<line x1="1108.5" y1="25" x2="1108.5" y2="-6.55671e-08" stroke="#D7B399" stroke-width="3"/>
<line x1="1110" y1="23.5" x2="1085" y2="23.5" stroke="#D7B399" stroke-width="3"/>
<line y1="-1.5" x2="25" y2="-1.5" transform="matrix(-4.37114e-08 -1 -1 4.37114e-08 855 25)" stroke="#D7B399" stroke-width="3"/>
<line y1="-1.5" x2="25" y2="-1.5" transform="matrix(1 0 0 -1 855 22)" stroke="#D7B399" stroke-width="3"/>
</svg>
