<svg width="1110" height="25" viewBox="0 0 1110 25" fill="none" xmlns="http://www.w3.org/2000/svg">
<line x1="1.5" y1="6.55671e-08" x2="1.5" y2="25" stroke="#D7B399" stroke-width="3"/>
<line y1="1.5" x2="25" y2="1.5" stroke="#D7B399" stroke-width="3"/>
<line y1="-1.5" x2="25" y2="-1.5" transform="matrix(4.37114e-08 1 1 -4.37114e-08 255 0)" stroke="#D7B399" stroke-width="3"/>
<line y1="-1.5" x2="25" y2="-1.5" transform="matrix(-1 0 0 1 255 3)" stroke="#D7B399" stroke-width="3"/>
<line x1="286.5" y1="6.55671e-08" x2="286.5" y2="25" stroke="#D7B399" stroke-width="3"/>
<line x1="285" y1="1.5" x2="310" y2="1.5" stroke="#D7B399" stroke-width="3"/>
<line y1="-1.5" x2="25" y2="-1.5" transform="matrix(4.37114e-08 1 1 -4.37114e-08 540 0)" stroke="#D7B399" stroke-width="3"/>
<line y1="-1.5" x2="25" y2="-1.5" transform="matrix(-1 0 0 1 540 3)" stroke="#D7B399" stroke-width="3"/>
<line x1="571.5" y1="6.55671e-08" x2="571.5" y2="25" stroke="#D7B399" stroke-width="3"/>
<line x1="570" y1="1.5" x2="595" y2="1.5" stroke="#D7B399" stroke-width="3"/>
<line y1="-1.5" x2="25" y2="-1.5" transform="matrix(4.37114e-08 1 1 -4.37114e-08 825 0)" stroke="#D7B399" stroke-width="3"/>
<line y1="-1.5" x2="25" y2="-1.5" transform="matrix(-1 0 0 1 825 3)" stroke="#D7B399" stroke-width="3"/>
<line x1="856.5" y1="6.55671e-08" x2="856.5" y2="25" stroke="#D7B399" stroke-width="3"/>
<line x1="855" y1="1.5" x2="880" y2="1.5" stroke="#D7B399" stroke-width="3"/>
<line y1="-1.5" x2="25" y2="-1.5" transform="matrix(4.37114e-08 1 1 -4.37114e-08 1110 0)" stroke="#D7B399" stroke-width="3"/>
<line y1="-1.5" x2="25" y2="-1.5" transform="matrix(-1 0 0 1 1110 3)" stroke="#D7B399" stroke-width="3"/>
</svg>
